<?xml version="1.0" encoding="UTF-8"?>
<svg id="Layer_1" data-name="Layer 1" xmlns="http://www.w3.org/2000/svg" viewBox="0 0 25 25">
  <g>
    <path d="M10.58,22.13h-1.81c-.39,0-.72-.29-.77-.68l-.16-1.26c-.09-.04-.18-.07-.27-.11l-1.01.78c-.31.24-.74.21-1.02-.06l-1.28-1.28c-.27-.28-.3-.71-.06-1.02l.78-1.01c-.04-.09-.08-.18-.11-.27l-1.26-.16c-.39-.05-.68-.38-.68-.77v-1.81c0-.39.29-.72.68-.77l1.26-.16c.03-.09.07-.18.11-.27l-.78-1.01c-.24-.31-.21-.75.06-1.02l1.28-1.28c.27-.27.71-.3,1.02-.06l1,.78c.09-.04.18-.08.27-.11l.16-1.26c.05-.39.38-.68.77-.68h1.81c.39,0,.72.29.77.68l.16,1.27c.09.03.18.07.27.11l1.01-.78c.31-.24.75-.21,1.02.06l1.28,1.28c.28.27.3.71.06,1.02l-.78,1.01c.04.09.08.18.11.27l1.26.16c.38.05.68.37.68.76v1.81c0,.39-.29.72-.68.77l-1.27.16c-.03.09-.07.18-.11.27l.78,1.01c.24.3.21.74-.06,1.02l-1.28,1.28c-.28.27-.71.3-1.02.07l-1.01-.79c-.09.04-.18.08-.27.11l-.16,1.26c-.05.39-.38.68-.77.68ZM9.06,21.03h1.23l.15-1.18c.04-.3.24-.54.52-.63.18-.06.35-.13.51-.21.26-.13.58-.1.81.08l.94.73.87-.87-.73-.94c-.18-.24-.21-.55-.08-.81.08-.17.15-.34.21-.52.09-.28.34-.49.64-.52l1.17-.15v-1.23l-1.18-.15c-.29-.04-.54-.24-.63-.52-.06-.18-.13-.35-.21-.51-.13-.26-.1-.58.08-.82l.73-.94-.87-.87-.94.73c-.23.18-.55.21-.81.08-.17-.08-.34-.15-.52-.21-.28-.09-.48-.34-.52-.63l-.15-1.18h-1.23l-.15,1.18c-.04.29-.24.54-.52.63-.18.06-.35.13-.51.21-.27.13-.58.1-.81-.08l-.94-.73-.87.87.73.94c.18.23.21.55.08.82-.08.16-.15.34-.21.51-.09.28-.34.48-.63.52l-1.18.15v1.23l1.18.15c.29.03.54.24.63.52.06.18.13.35.21.51.13.27.1.58-.08.81l-.73.94.87.87.94-.73c.24-.18.55-.21.81-.08.17.08.34.15.51.21.28.09.49.34.52.63l.15,1.18ZM5.08,17.25s0,0,0,0h0ZM14.27,17.25h0s0,0,0,0ZM14.54,17.02s0,0,0,0t0,0ZM15.6,14.82s0,0,0,0h0ZM3.76,14.81h0s0,0,0,0ZM5.12,13.46s0,0,0,0h0ZM5.08,13.11s0,0,0,0c0,0,0,0,0,0ZM14.27,13.11h0s0,0,0,0ZM14.3,12.05s0,0,0,0h0ZM5.05,12.05h0s0,0,0,0ZM13.02,10.77s0,0,0,0h0ZM11.31,10.53s0,0,0,0c0,0,0,0,0,0Z" stroke-width="0"/>
    <path d="M9.68,18.8c-1.88,0-3.41-1.53-3.41-3.41s1.53-3.41,3.41-3.41,3.41,1.53,3.41,3.41-1.53,3.41-3.41,3.41ZM9.68,13.09c-1.27,0-2.31,1.03-2.31,2.31s1.03,2.31,2.31,2.31,2.31-1.03,2.31-2.31-1.03-2.31-2.31-2.31Z" stroke-width="0"/>
  </g>
  <g>
    <path d="M18.67,11.67h-1.23c-.26,0-.49-.2-.52-.46l-.11-.86c-.06-.02-.12-.05-.18-.08l-.68.53c-.21.16-.51.14-.69-.04l-.87-.87c-.19-.19-.2-.49-.04-.69l.53-.69c-.03-.06-.05-.12-.08-.18l-.86-.11c-.26-.03-.46-.26-.46-.52v-1.23c0-.27.2-.49.46-.52l.86-.11c.02-.06.05-.12.08-.18l-.53-.69c-.16-.21-.14-.51.04-.69l.87-.87c.19-.19.49-.2.69-.04l.68.53c.06-.03.12-.05.18-.08l.11-.86c.03-.26.26-.46.52-.46h1.23c.26,0,.49.2.52.46l.11.86c.06.02.12.05.18.08l.69-.53c.21-.16.51-.14.69.04l.87.87c.19.19.21.49.04.69l-.53.68c.03.06.05.12.08.18l.86.11c.26.03.46.25.46.52v1.23c0,.26-.2.49-.46.52l-.86.11c-.02.06-.05.12-.08.18l.53.68c.16.21.14.51-.04.69l-.87.87c-.19.19-.48.2-.69.04l-.69-.53c-.06.03-.12.05-.18.08l-.11.86c-.03.26-.26.46-.52.46ZM17.64,10.93h.84l.1-.8c.03-.2.16-.37.36-.43.12-.04.24-.09.35-.14.18-.09.4-.07.55.05l.64.5.59-.59-.5-.64c-.12-.16-.14-.37-.05-.55.06-.11.1-.23.15-.35.06-.19.23-.33.43-.35l.8-.1v-.84l-.8-.1c-.2-.03-.37-.16-.43-.36-.04-.12-.09-.24-.14-.35-.09-.18-.07-.4.05-.56l.5-.64-.59-.59-.64.5c-.16.12-.38.14-.55.05-.11-.06-.23-.1-.35-.15-.19-.06-.33-.23-.35-.43l-.1-.8h-.84l-.1.8c-.03.2-.16.37-.35.43-.12.04-.24.09-.35.14-.18.09-.39.07-.55-.05l-.64-.5-.59.59.5.64c.12.16.14.38.05.56-.06.11-.1.23-.14.35-.06.19-.23.33-.43.36l-.8.1v.84l.8.1c.2.02.37.16.43.35.04.12.09.24.14.35.09.18.07.39-.05.55l-.5.64.59.59.64-.5c.16-.12.37-.15.55-.05.11.06.23.11.35.14.19.06.33.23.36.43l.1.8ZM14.93,8.35s0,0,0,0h0ZM21.19,8.35h0s0,0,0,0ZM21.37,8.2s0,0,0,0t0,0ZM22.09,6.69s0,0,0,0h0ZM14.03,6.69h0s0,0,0,0ZM14.96,5.77s0,0,0,0h0ZM14.93,5.53s0,0,0,0c0,0,0,0,0,0ZM21.19,5.53h0s0,0,0,0ZM21.21,4.81s0,0,0,0h0ZM14.91,4.81h0s0,0,0,0ZM20.34,3.94s0,0,0,0h0ZM19.17,3.77s0,0,0,0c0,0,0,0,0,0Z" stroke-width="0"/>
    <path d="M18.06,9.41c-1.28,0-2.32-1.04-2.32-2.32s1.04-2.32,2.32-2.32,2.32,1.04,2.32,2.32-1.04,2.32-2.32,2.32ZM18.06,5.52c-.87,0-1.57.7-1.57,1.57s.7,1.57,1.57,1.57,1.57-.7,1.57-1.57-.7-1.57-1.57-1.57Z" stroke-width="0"/>
  </g>
</svg>