<?xml version="1.0" encoding="UTF-8"?>
<svg xmlns="http://www.w3.org/2000/svg" xmlns:xlink="http://www.w3.org/1999/xlink" viewBox="0 0 3330.38 1348.09">
  <defs>
    <clipPath id="clippath">
      <rect y="56.39" width="3330.38" height="1291.69" fill="none" stroke-width="0"/>
    </clipPath>
    <linearGradient id="linear-gradient" x1="2427.51" y1="1066.53" x2="2427.51" y2="639.37" gradientTransform="translate(-69.21 166.17) rotate(.12)" gradientUnits="userSpaceOnUse">
      <stop offset="0" stop-color="#0d315c"/>
      <stop offset="1" stop-color="#007c89"/>
    </linearGradient>
    <clipPath id="clippath-1">
      <path d="M2838.75,980.36c-3.65,0-5.82-.07-6.12-.08l1.08-29.59,1.03-29.51c22.23.74,85.85-3.06,112.96-29.28,8.03-7.77,11.78-16.78,11.78-28.37v-169.29c0-60.95,49.59-110.53,110.53-110.53s110.54,49.59,110.54,110.53v125.13h-59.14v-125.13c0-28.34-23.06-51.4-51.4-51.4s-51.4,23.06-51.4,51.4v169.29c0,27.57-10.34,52.12-29.92,70.99-22.08,21.29-55.46,35.42-99.24,42.02-22.11,3.33-41.31,3.82-50.71,3.82Z" fill="none" stroke-width="0"/>
    </clipPath>
    <clipPath id="clippath-2">
      <rect x="3110.47" y="808.11" width="81.78" height="25.45" rx="12.73" ry="12.73" fill="none" stroke-width="0"/>
    </clipPath>
    <clipPath id="clippath-3">
      <path d="M2414.12,1044.86c-2.99-.03-6.84-.12-11.65-.32-10.68-.45-21.45-3.35-27.87-5.39,5.83-2.4,11.81-3.6,17.96-3.49,3.87,0,7-3.13,7-7s-3.12-6.99-6.97-7c-6.6-.03-16.57-.04-23.98.03-12.08.13-33.47,15.22-33.47,15.22v5.36l-9.69,1.5,3.96,49.64c27.08,4.23,46.64-1.21,50.39-2.37,7.85.5,29.58.16,33.4-18.55,2.86-2.72,4.93-6.38,5.65-11.29,2.49-1.62,4.07-4.42,4.05-7.52h0c-.04-4.85-3.95-8.77-8.79-8.82Z" fill="none" stroke-width="0"/>
    </clipPath>
  </defs>
  <g isolation="isolate">
    <g id="Layer_1" data-name="Layer 1">
      <g clip-path="url(#clippath)">
        <g>
          <path d="M2078.4,919.72h-56.1c-26.83,0-48.65-21.82-48.65-48.65v-475.02h6.95v475.02c0,22.99,18.71,41.7,41.7,41.7h56.1v6.95Z" stroke-width="0"/>
          <path d="M1966.33,396.06h21.58v10.79c0,5.96-4.84,10.79-10.79,10.79h0c-5.96,0-10.79-4.84-10.79-10.79v-10.79h0Z" stroke-width="0"/>
        </g>
        <g>
          <g>
            <rect x="1800.76" y="1039.23" width="20.23" height="107.57" fill="#af4f3f" stroke="#000" stroke-miterlimit="10" stroke-width="2.12"/>
            <g>
              <g>
                <path d="M1776.06,905.41c-11.45,42.23-21.66,85.22-30.73,128.9-4.44,21.38,11.08,41.78,32.88,43.05,21.77,1.27,43.54,1.27,65.31.02,21.85-1.26,37.45-21.77,32.86-43.17-9.21-42.88-19.63-85.75-31.27-128.63-9.55-35.2-59.51-35.36-69.05-.16Z" fill="#009f41" stroke-width="0"/>
                <path d="M1778.28,1049.32c-14.38-16.99,10.85-130.71,19.63-168.02-9.97,3.59-18.46,11.61-21.85,24.11-11.45,42.23-21.66,85.22-30.73,128.9-4.44,21.38,11.08,41.78,32.88,43.05,17.12,1,34.24,1.2,51.37.64-6.3-1.71-35.94-10.53-51.3-28.68Z" fill="#007f33" stroke-width="0"/>
              </g>
              <path d="M1776.06,905.41c-11.45,42.23-21.66,85.22-30.73,128.9-4.44,21.38,11.08,41.78,32.88,43.05,21.77,1.27,43.54,1.27,65.31.02,21.85-1.26,37.45-21.77,32.86-43.17-9.21-42.88-19.63-85.75-31.27-128.63-9.55-35.2-59.51-35.36-69.05-.16Z" fill="none" stroke="#000" stroke-miterlimit="10" stroke-width="2"/>
            </g>
          </g>
          <g>
            <rect x="1897.9" y="1045.14" width="18.61" height="98.95" fill="#af4f3f" stroke="#000" stroke-miterlimit="10" stroke-width="2.12"/>
            <g>
              <g>
                <path d="M1875.17,922.05c-10.53,38.85-19.92,78.39-28.27,118.57-4.08,19.67,10.2,38.43,30.25,39.6,20.02,1.17,40.05,1.17,60.07.01,20.1-1.16,34.45-20.03,30.23-39.71-8.47-39.44-18.06-78.88-28.76-118.32-8.79-32.38-54.74-32.53-63.52-.15Z" fill="#009f41" stroke-width="0"/>
                <path d="M1877.22,1054.43c-13.23-15.63,9.98-120.23,18.06-154.56-9.17,3.31-16.98,10.68-20.1,22.18-10.53,38.85-19.92,78.39-28.27,118.57-4.08,19.67,10.2,38.43,30.25,39.6,15.75.92,31.5,1.11,47.25.59-5.79-1.57-33.06-9.68-47.19-26.38Z" fill="#007f33" stroke-width="0"/>
              </g>
              <path d="M1875.17,922.05c-10.53,38.85-19.92,78.39-28.27,118.57-4.08,19.67,10.2,38.43,30.25,39.6,20.02,1.17,40.05,1.17,60.07.01,20.1-1.16,34.45-20.03,30.23-39.71-8.47-39.44-18.06-78.88-28.76-118.32-8.79-32.38-54.74-32.53-63.52-.15Z" fill="none" stroke="#000" stroke-miterlimit="10" stroke-width="2"/>
            </g>
          </g>
          <g>
            <rect x="1191.85" y="1095.28" width="10.92" height="58.03" fill="#af4f3f" stroke="#000" stroke-miterlimit="10" stroke-width="2.12"/>
            <g>
              <g>
                <path d="M1178.52,1023.09c-6.18,22.78-11.68,45.97-16.58,69.54-2.4,11.53,5.98,22.54,17.74,23.22,11.74.68,23.49.69,35.23,0,11.79-.68,20.2-11.74,17.73-23.29-4.97-23.13-10.59-46.26-16.87-69.39-5.15-18.99-32.1-19.08-37.25-.09Z" fill="#009f41" stroke-width="0"/>
                <path d="M1179.72,1100.72c-7.76-9.17,5.85-70.51,10.59-90.64-5.38,1.94-9.96,6.26-11.79,13.01-6.18,22.78-11.68,45.97-16.58,69.54-2.4,11.53,5.98,22.54,17.74,23.22,9.24.54,18.47.65,27.71.34-3.4-.92-19.39-5.68-27.67-15.47Z" fill="#007f33" stroke-width="0"/>
              </g>
              <path d="M1178.52,1023.09c-6.18,22.78-11.68,45.97-16.58,69.54-2.4,11.53,5.98,22.54,17.74,23.22,11.74.68,23.49.69,35.23,0,11.79-.68,20.2-11.74,17.73-23.29-4.97-23.13-10.59-46.26-16.87-69.39-5.15-18.99-32.1-19.08-37.25-.09Z" fill="none" stroke="#000" stroke-miterlimit="10" stroke-width="2"/>
            </g>
          </g>
          <path d="M1959,1138.3c0-.1,0-.19,0-.29-.02-15.89-12.74-29.07-28.62-29.64-1.88-.07-3.72.04-5.51.31-6.53-12.51-19.63-21.05-34.72-21.05-13.83,0-25.98,7.17-32.94,17.99-15.75.73-28.3,13.73-28.3,29.67,0,1.36.09,2.71.27,4.02.55,4.08,4.03,7.12,8.14,7.12h113.46c4.5,0,8.18-3.62,8.22-8.13Z" fill="#009f41" stroke="#000" stroke-miterlimit="10" stroke-width="2"/>
          <path d="M2019.9,1138.3c0-.1,0-.19,0-.29-.02-15.89-12.74-29.07-28.62-29.64-1.88-.07-3.72.04-5.51.31-6.53-12.51-19.63-21.05-34.72-21.05-13.83,0-25.98,7.17-32.94,17.99-15.75.73-28.3,13.73-28.3,29.67,0,1.36.09,2.71.27,4.02.55,4.08,4.03,7.12,8.14,7.12h113.46c4.5,0,8.18-3.62,8.22-8.13Z" fill="#009f41" stroke="#000" stroke-miterlimit="10" stroke-width="2"/>
          <path d="M1191.85,1145.56c0-.1,0-.19,0-.29-.02-15.89-12.74-29.07-28.62-29.64-1.88-.07-3.72.04-5.51.31-6.53-12.51-19.63-21.05-34.72-21.05-13.83,0-25.98,7.17-32.94,17.99-15.75.73-28.3,13.73-28.3,29.67,0,1.36.09,2.71.27,4.02.55,4.08,4.03,7.12,8.14,7.12h113.46c4.5,0,8.18-3.62,8.22-8.13Z" fill="#009f41" stroke="#000" stroke-miterlimit="10" stroke-width="2"/>
          <path d="M243.58,1145.56c0-.1,0-.19,0-.29-.02-15.89-12.74-29.07-28.62-29.64-1.88-.07-3.72.04-5.51.31-6.53-12.51-19.63-21.05-34.72-21.05-13.83,0-25.98,7.17-32.94,17.99-15.75.73-28.3,13.73-28.3,29.67,0,1.36.09,2.71.27,4.02.55,4.08,4.03,7.12,8.14,7.12h113.46c4.5,0,8.18-3.62,8.22-8.13Z" fill="#009f41" stroke="#000" stroke-miterlimit="10" stroke-width="2"/>
        </g>
        <g>
          <path d="M2017.47,1012.95c-1.29-1.53-2.55-3.08-3.8-4.65" fill="none" stroke="#000" stroke-miterlimit="10" stroke-width="2"/>
          <path d="M2006.45,998.77c-28.09-38.98-44.5-85.95-44.5-136.51h0c0-134.92,116.78-244.29,260.84-244.29h839.22c105.42,0,190.88-80.04,190.88-178.77h0c0-98.73-85.46-178.77-190.88-178.77h-519.08" fill="none" stroke="#000" stroke-dasharray="0 0 11.96 11.96" stroke-miterlimit="10" stroke-width="2"/>
          <line x1="2536.94" y1="260.42" x2="2530.94" y2="260.42" fill="none" stroke="#000" stroke-miterlimit="10" stroke-width="2"/>
        </g>
        <g>
          <rect x="2054.69" y="507.65" width="355.33" height="666.13" rx="38.08" ry="38.08" fill="#e2e2e2" stroke="#000" stroke-miterlimit="10" stroke-width="2"/>
          <rect x="2189.31" y="507.65" width="355.33" height="666.13" rx="38.08" ry="38.08" fill="#fff" stroke="#000" stroke-miterlimit="10" stroke-width="2"/>
          <g>
            <rect x="2235.71" y="583.7" width="287.43" height="33.46" stroke="#000" stroke-miterlimit="10" stroke-width="2"/>
            <rect x="2229.71" y="583.7" width="288.43" height="33.46" fill="#fff" stroke="#000" stroke-miterlimit="10" stroke-width="2"/>
            <ellipse cx="2269.52" cy="600.43" rx="9.57" ry="9.89" fill="#f7931a" stroke="#000" stroke-miterlimit="10" stroke-width="2"/>
            <ellipse cx="2307.47" cy="600.43" rx="9.57" ry="9.89" fill="#a168d5" stroke="#000" stroke-miterlimit="10" stroke-width="2"/>
            <ellipse cx="2345.42" cy="600.43" rx="9.57" ry="9.89" fill="#e6007a" stroke="#000" stroke-miterlimit="10" stroke-width="2"/>
            <path d="M2500.75,603.41h-89.43c-1.49,0-2.69-1.33-2.69-2.98s1.2-2.98,2.69-2.98h89.43c1.49,0,2.69,1.33,2.69,2.98s-1.2,2.98-2.69,2.98Z" stroke-width="0"/>
          </g>
          <g>
            <rect x="2234.71" y="667.42" width="288.43" height="33.46" stroke="#000" stroke-miterlimit="10" stroke-width="2"/>
            <rect x="2229.71" y="667.42" width="288.43" height="33.46" fill="#fff" stroke="#000" stroke-miterlimit="10" stroke-width="2"/>
            <ellipse cx="2269.52" cy="684.15" rx="9.57" ry="9.89" fill="#f7931a" stroke="#000" stroke-miterlimit="10" stroke-width="2"/>
            <ellipse cx="2307.47" cy="684.15" rx="9.57" ry="9.89" fill="#a168d5" stroke="#000" stroke-miterlimit="10" stroke-width="2"/>
            <ellipse cx="2345.42" cy="684.15" rx="9.57" ry="9.89" fill="#e6007a" stroke="#000" stroke-miterlimit="10" stroke-width="2"/>
            <path d="M2500.75,687.13h-89.43c-1.49,0-2.69-1.33-2.69-2.98s1.2-2.98,2.69-2.98h89.43c1.49,0,2.69,1.33,2.69,2.98s-1.2,2.98-2.69,2.98Z" stroke-width="0"/>
          </g>
          <g>
            <rect x="2234.71" y="751.13" width="288.43" height="33.46" stroke="#000" stroke-miterlimit="10" stroke-width="2"/>
            <rect x="2229.71" y="751.13" width="288.43" height="33.46" fill="#fff" stroke="#000" stroke-miterlimit="10" stroke-width="2"/>
            <ellipse cx="2269.52" cy="767.86" rx="9.57" ry="9.89" fill="#f7931a" stroke="#000" stroke-miterlimit="10" stroke-width="2"/>
            <ellipse cx="2307.47" cy="767.86" rx="9.57" ry="9.89" fill="#a168d5" stroke="#000" stroke-miterlimit="10" stroke-width="2"/>
            <ellipse cx="2345.42" cy="767.86" rx="9.57" ry="9.89" fill="#e6007a" stroke="#000" stroke-miterlimit="10" stroke-width="2"/>
            <path d="M2500.75,770.84h-89.43c-1.49,0-2.69-1.33-2.69-2.98s1.2-2.98,2.69-2.98h89.43c1.49,0,2.69,1.33,2.69,2.98s-1.2,2.98-2.69,2.98Z" stroke-width="0"/>
          </g>
          <g>
            <rect x="2234.71" y="834.85" width="288.43" height="33.46" fill="#020201" stroke="#000" stroke-miterlimit="10" stroke-width="2"/>
            <rect x="2229.71" y="834.85" width="288.43" height="33.46" fill="#fff" stroke="#000" stroke-miterlimit="10" stroke-width="2"/>
            <ellipse cx="2272.06" cy="851.58" rx="8.93" ry="9.89" fill="#f7931a" stroke="#000" stroke-miterlimit="10" stroke-width="2"/>
            <ellipse cx="2307.47" cy="851.58" rx="8.93" ry="9.89" fill="#a168d5" stroke="#000" stroke-miterlimit="10" stroke-width="2"/>
            <ellipse cx="2342.87" cy="851.58" rx="8.93" ry="9.89" fill="#e6007a" stroke="#000" stroke-miterlimit="10" stroke-width="2"/>
            <path d="M2500.75,854.56h-89.43c-1.49,0-2.69-1.33-2.69-2.98s1.2-2.98,2.69-2.98h89.43c1.49,0,2.69,1.33,2.69,2.98s-1.2,2.98-2.69,2.98Z" stroke-width="0"/>
          </g>
        </g>
        <g>
          <rect x="2072.08" y="1074.73" width="12.64" height="67.18" fill="#af4f3f" stroke="#000" stroke-miterlimit="10" stroke-width="2.12"/>
          <g>
            <g>
              <path d="M2056.65,991.16c-7.15,26.37-13.52,53.22-19.19,80.5-2.77,13.35,6.92,26.09,20.54,26.88,13.6.79,27.19.8,40.79,0s23.39-13.6,20.52-26.96c-5.75-26.78-12.26-53.55-19.53-80.33-5.97-21.98-37.16-22.09-43.13-.1Z" fill="#009f41" stroke-width="0"/>
              <path d="M2058.04,1081.03c-8.98-10.61,6.78-81.63,12.26-104.93-6.22,2.24-11.53,7.25-13.65,15.06-7.15,26.37-13.52,53.22-19.19,80.5-2.77,13.35,6.92,26.09,20.54,26.88,10.69.62,21.39.75,32.08.4-3.93-1.07-22.44-6.57-32.04-17.91Z" fill="#007f33" stroke-width="0"/>
            </g>
            <path d="M2056.65,991.16c-7.15,26.37-13.52,53.22-19.19,80.5-2.77,13.35,6.92,26.09,20.54,26.88,13.6.79,27.19.8,40.79,0s23.39-13.6,20.52-26.96c-5.75-26.78-12.26-53.55-19.53-80.33-5.97-21.98-37.16-22.09-43.13-.1Z" fill="none" stroke="#000" stroke-miterlimit="10" stroke-width="2"/>
          </g>
        </g>
        <path d="M2134.67,1138.3c0-.1,0-.19,0-.29-.02-15.89-12.74-29.07-28.62-29.64-1.88-.07-3.72.04-5.51.31-6.53-12.51-19.63-21.05-34.72-21.05-13.83,0-25.98,7.17-32.94,17.99-15.75.73-28.3,13.73-28.3,29.67,0,1.36.09,2.71.27,4.02.55,4.08,4.03,7.12,8.14,7.12h113.46c4.5,0,8.18-3.62,8.22-8.13Z" fill="#009f41" stroke="#000" stroke-miterlimit="10" stroke-width="2"/>
        <rect y="1141.78" width="3553.88" height="395.45" fill="#008235" stroke="#000" stroke-miterlimit="10" stroke-width="2"/>
        <g>
          <g>
            <g>
              <line x1="3140.3" y1="188.19" x2="3140.3" y2="225.92" fill="#f7931a" stroke="#000" stroke-miterlimit="10" stroke-width="2"/>
              <line x1="3140.3" y1="443.62" x2="3140.3" y2="481.35" fill="#f7931a" stroke="#000" stroke-miterlimit="10" stroke-width="2"/>
            </g>
            <g>
              <line x1="3054.15" y1="216.19" x2="3076.33" y2="246.71" fill="#f7931a" stroke="#000" stroke-miterlimit="10" stroke-width="2"/>
              <line x1="3204.28" y1="422.83" x2="3226.46" y2="453.35" fill="#f7931a" stroke="#000" stroke-miterlimit="10" stroke-width="2"/>
            </g>
            <g>
              <line x1="3000.9" y1="289.47" x2="3036.79" y2="301.13" fill="#f7931a" stroke="#000" stroke-miterlimit="10" stroke-width="2"/>
              <line x1="3243.82" y1="368.4" x2="3279.71" y2="380.06" fill="#f7931a" stroke="#000" stroke-miterlimit="10" stroke-width="2"/>
            </g>
            <g>
              <line x1="3000.9" y1="380.06" x2="3036.79" y2="368.4" fill="#f7931a" stroke="#000" stroke-miterlimit="10" stroke-width="2"/>
              <line x1="3243.82" y1="301.13" x2="3279.71" y2="289.47" fill="#f7931a" stroke="#000" stroke-miterlimit="10" stroke-width="2"/>
            </g>
            <g>
              <line x1="3054.15" y1="453.35" x2="3076.33" y2="422.83" fill="#f7931a" stroke="#000" stroke-miterlimit="10" stroke-width="2"/>
              <line x1="3204.28" y1="246.71" x2="3226.46" y2="216.19" fill="#f7931a" stroke="#000" stroke-miterlimit="10" stroke-width="2"/>
            </g>
          </g>
          <g>
            <circle cx="3140.3" cy="334.77" r="96.4" fill="#f7931a" stroke="#000" stroke-miterlimit="10" stroke-width="2"/>
            <path d="M3208.56,402.39c10.99-15.58,17.45-34.59,17.45-55.1,0-52.87-42.86-95.72-95.72-95.72-28.16,0-53.47,12.15-70.99,31.5,17.07-26.71,46.98-44.43,81.04-44.43,53.08,0,96.1,43.02,96.1,96.09,0,26.38-10.64,50.29-27.87,67.66Z" fill="#f4cb1c" stroke-width="0"/>
            <circle cx="3140.3" cy="334.77" r="96.4" fill="none" stroke="#231f20" stroke-miterlimit="10"/>
          </g>
        </g>
        <g>
          <polygon points="2374.26 264.37 2598.2 334.77 2598.2 280.64 2374.26 264.37" fill="#fff" stroke="#000" stroke-miterlimit="10" stroke-width="2"/>
          <polygon points="2371.07 262.79 2598.2 323.84 2598.2 201.75 2371.07 262.79" fill="#fff" stroke="#000" stroke-miterlimit="10" stroke-width="2"/>
          <polygon points="2371.07 262.79 2598.2 277.67 2598.2 247.92 2371.07 262.79" stroke="#000" stroke-miterlimit="10" stroke-width="2"/>
        </g>
        <g>
          <path d="M3359.61,1112.89h-1136.82c-79.04,0-149.87-35.16-197.71-90.69" fill="none" stroke="#000" stroke-dasharray="0 0 11.99 11.99" stroke-miterlimit="10" stroke-width="2"/>
          <path d="M2021.23,1017.62c-1.27-1.54-2.52-3.1-3.76-4.68" fill="none" stroke="#000" stroke-miterlimit="10" stroke-width="2"/>
        </g>
        <g>
          <ellipse cx="2724.19" cy="1160.95" rx="87.9" ry="17.57" fill="#51638e" mix-blend-mode="multiply" opacity=".4" stroke-width="0"/>
          <ellipse cx="3163.11" cy="1174.58" rx="44.23" ry="17.57" fill="#51638e" mix-blend-mode="multiply" opacity=".22" stroke-width="0"/>
          <ellipse cx="2356.86" cy="1265.66" rx="87.9" ry="17.57" fill="#51638e" mix-blend-mode="multiply" opacity=".4" stroke-width="0"/>
          <g>
            <g>
              <path d="M2608.56,973.11h-422.95c-33.46,0-60.58,27.12-60.58,60.58h0c0,33.46,27.12,60.58,60.58,60.58h171.26s0-75.49,0-75.49h251.7v-45.68Z" fill="#8787dd" stroke-width="0"/>
              <path d="M2539.48,1006.21h-125.86s7.02,5.91,15.33,12.84h112.01l-1.47-12.84Z" fill="#6d6dc6" stroke-width="0"/>
              <polygon points="2183.34 1028.34 2266.38 1015.78 2261.1 1035.69 2183.34 1028.34" stroke-width="0"/>
              <path d="M2582.84,1019.05v-45.68h-41.9c-1.43,14.23-5.78,33.1-18.13,45.68h60.03Z" stroke="#000" stroke-miterlimit="10" stroke-width="1.37"/>
              <path d="M2608.56,973.38h-422.95c-33.46,0-60.58,27.12-60.58,60.58h0c0,33.46,27.12,60.58,60.58,60.58h171.26s0-75.49,0-75.49h251.7v-45.68Z" fill="none" stroke="#000" stroke-miterlimit="10" stroke-width="2"/>
            </g>
            <g>
              <g>
                <g>
                  <path d="M2235.23,1087.29l120.93-59.59c.19-.09.41-.09.6,0l120.67,60.11c.46.23.51.87.09,1.16l-120.98,85.48c-.24.17-.55.17-.79,0l-120.61-86c-.42-.3-.37-.93.09-1.16Z" fill="url(#linear-gradient)" stroke="#000" stroke-miterlimit="10" stroke-width="2"/>
                  <polygon points="2478.48 1073.67 2356.22 1139.47 2234.24 1073.14 2356.86 839.86 2478.48 1073.67" fill="#8787dd" stroke="#000" stroke-miterlimit="10" stroke-width="1.37"/>
                  <path d="M2236.94,1089.33l118.88,66.75c.22.12.49.13.72,0l119.17-66.24c.68-.38,1.4.42.96,1.06l-119.2,174.6c-.29.43-.92.42-1.21,0l-120.28-175.12c-.44-.64.29-1.43.97-1.05Z" fill="#8787dd" stroke="#000" stroke-miterlimit="10" stroke-width="1.37"/>
                  <polygon points="2356.18 1156.28 2355.94 1266.23 2478.44 1088.32 2356.18 1156.28" fill="#76ffe5" stroke-width="0"/>
                  <polygon points="2356.86 839.86 2356.22 1139.47 2478.48 1073.67 2356.86 839.86" fill="#76ffe5" stroke-width="0"/>
                </g>
                <polygon points="2478.48 1073.67 2356.22 1139.47 2234.24 1073.14 2356.86 839.86 2478.48 1073.67" fill="none" stroke="#000" stroke-miterlimit="10" stroke-width="1.86"/>
                <path d="M2234.94,1088.2l121.24,68.08,121.54-67.55c.18-.1.37.11.26.28l-121.11,177.22-122.18-177.74c-.12-.17.08-.38.26-.28Z" fill="none" stroke="#000" stroke-miterlimit="10" stroke-width="1.86"/>
              </g>
              <line x1="2356.86" y1="839.86" x2="2356.86" y2="1139.47" fill="none" stroke="#000" stroke-miterlimit="10" stroke-width="2"/>
              <line x1="2356.86" y1="1155.49" x2="2356.86" y2="1265.66" fill="none" stroke="#000" stroke-miterlimit="10" stroke-width="2"/>
            </g>
            <g>
              <path d="M3114.97,897.28c6.44,4.64,15.51,2.58,19.5-4.28l.26-.45c2.57-4.42,2.23-9.88-.66-14.1" fill="#fff" stroke="#000" stroke-miterlimit="10" stroke-width="1.37"/>
              <g>
                <path d="M3249.53,965.96c-1.97-26.72-24.78-36.18-53.79-39.38l.83-36.99-22.52-.5-.81,36.01c-5.92-.13-11.97-.15-17.99-.17l.82-36.25-22.5-.51-.84,36.98c-4.88,0-9.67-.03-14.33-.13v-.12s-31.05-.71-31.05-.71l-.53,24.05s16.63.06,16.35.36c9.12.21,11.97,5.57,12.73,10.16l-2.28,101.33c-.46,2.86-2.25,7.4-8.63,7.27.28.26-16.37-.37-16.37-.37l-5.08,26.79,29.3.66c5.45.13,10.82.34,16.08.49l-.83,37.41,22.49.51.83-37.02c6.17.27,12.15.45,17.98.58l-.84,36.84,22.52.5.84-37.34c37.9-1.32,64.61-10.26,68.7-45.73,3.3-28.56-9.88-41.64-31.25-47.28,13.2-6.35,21.63-17.88,20.16-37.44h0s0,0,0,0ZM3216.23,1045.24c-.62,27.96-48.41,23.7-63.67,23.37l1.12-49.57c15.26.35,63.21-2.97,62.55,26.19h0ZM3207.33,975.08c-.58,25.43-40.43,21.57-53.14,21.29l1.01-44.95c12.71.28,52.73-2.86,52.13,23.67h0Z" fill="#f7931a" stroke="#000" stroke-miterlimit="10" stroke-width="2"/>
                <path d="M3258.45,965.96c-1.97-26.72-24.78-36.18-53.79-39.38l.83-36.99-22.52-.5-.81,36.01c-5.92-.13-11.97-.15-17.99-.17l.82-36.25-22.5-.51-.84,36.98c-4.88,0-9.67-.03-14.33-.13v-.12s-31.05-.71-31.05-.71l-.53,24.05s16.63.06,16.35.36c9.12.21,11.97,5.57,12.73,10.16l-2.28,101.33c-.46,2.86-2.25,7.4-8.63,7.27.28.26-16.37-.37-16.37-.37l-5.08,26.79,29.3.66c5.45.13,10.82.34,16.08.49l-.83,37.41,22.49.51.83-37.02c6.17.27,12.15.45,17.98.58l-.84,36.84,22.52.5.84-37.34c37.9-1.32,64.61-10.26,68.7-45.73,3.3-28.56-9.88-41.64-31.25-47.28,13.2-6.35,21.63-17.88,20.16-37.44h0s0,0,0,0ZM3225.15,1045.24c-.62,27.96-48.41,23.7-63.67,23.37l1.12-49.57c15.26.35,63.21-2.97,62.55,26.19h0ZM3216.25,975.08c-.58,25.43-40.43,21.57-53.14,21.29l1.01-44.95c12.71.28,52.73-2.86,52.13,23.67h0Z" fill="#f7931a" stroke="#000" stroke-miterlimit="10" stroke-width="2"/>
              </g>
              <path d="M3180.55,835.6s29.44,6.68,27.43,26.18c-1.06,10.26-17.36,15.35-17.36,15.35" fill="#fff" stroke="#000" stroke-miterlimit="10" stroke-width="1.37"/>
              <path d="M3182.19,835.6s29.44,9.31,27.43,36.49c-1.06,14.3-17.36,21.39-17.36,21.39" fill="#fff" stroke="#000" stroke-miterlimit="10" stroke-width="1.37"/>
              <path d="M3134.07,878.45c-1.54-2.25-2.74-5.03-2.53-8.1.54-7.82,9.43-10.76,16.44-11.03,7.02-.27,17.45,2.64,20.79,12.11,1.39,3.93.55,8.85-.87,13.19-2.12,6.5.86,13.58,6.89,16.8h0c7.26,3.88,16.25.81,19.69-6.67,6.98-15.19,12.86-40.75-11.82-61.1-30.59-25.22-58.42-1.89-58.42-1.89,0,0-22.4,13.49-22.4,42.9,0,10.53,6.56,17.89,13.11,22.61" fill="#fff" stroke="#000" stroke-miterlimit="10" stroke-width="1.37"/>
              <path d="M2838.75,980.36c-3.65,0-5.82-.07-6.12-.08l1.08-29.59,1.03-29.51c22.23.74,85.85-3.06,112.96-29.28,8.03-7.77,11.78-16.78,11.78-28.37v-169.29c0-60.95,49.59-110.53,110.53-110.53s110.54,49.59,110.54,110.53v125.13h-59.14v-125.13c0-28.34-23.06-51.4-51.4-51.4s-51.4,23.06-51.4,51.4v169.29c0,27.57-10.34,52.12-29.92,70.99-22.08,21.29-55.46,35.42-99.24,42.02-22.11,3.33-41.31,3.82-50.71,3.82Z" fill="#8787dd" stroke-width="0"/>
              <g clip-path="url(#clippath-1)">
                <path d="M2871.81,955.82h15.03c66.14,0,119.75-42.29,119.75-108.42v-154.29c0-34.09,27.63-61.72,61.72-61.72h0c34.09,0,61.72,27.63,61.72,61.72v146.75h-28.17v-148.45h-55.06v315.94h-177.37l2.38-51.52Z" fill="#6d6dc6" stroke-width="0"/>
              </g>
              <path d="M2838.75,980.36c-3.65,0-5.82-.07-6.12-.08l1.08-29.59,1.03-29.51c22.23.74,85.85-3.06,112.96-29.28,8.03-7.77,11.78-16.78,11.78-28.37v-169.29c0-60.95,49.59-110.53,110.53-110.53s110.54,49.59,110.54,110.53v125.13h-59.14v-125.13c0-28.34-23.06-51.4-51.4-51.4s-51.4,23.06-51.4,51.4v169.29c0,27.57-10.34,52.12-29.92,70.99-22.08,21.29-55.46,35.42-99.24,42.02-22.11,3.33-41.31,3.82-50.71,3.82Z" fill="none" stroke="#000" stroke-miterlimit="10" stroke-width="2"/>
              <path d="M2935.94,965.38c-29.6-10.38-40.6-35.6-44.47-49.13-18.42,3.63-36.63,4.86-48.99,5l13.57,58.64c9.38-.49,20.93-1.47,33.41-3.35,17.1-2.58,32.6-6.31,46.47-11.16Z" stroke="#000" stroke-miterlimit="10" stroke-width="1.37"/>
              <g>
                <path d="M2833.71,839.86c-2.03.8-4.12,1.68-6.28,2.64l-12.98,5.82" fill="none" stroke="#dc9b56" stroke-linecap="round" stroke-miterlimit="10" stroke-width="15"/>
                <g>
                  <path d="M2619.28,843.14c1.06.54,2.13,1.09,3.22,1.67l1.85,1.01" fill="none" stroke="#dc9b56" stroke-linecap="round" stroke-miterlimit="10" stroke-width="15"/>
                  <path d="M2578.79,1078.07c1.05-2.04,2.17-4.12,3.36-6.23l.69-1.28" fill="none" stroke="#dc9b56" stroke-linecap="round" stroke-miterlimit="10" stroke-width="15"/>
                  <path d="M2857.43,1079.37c1.59,2.95,3.02,5.76,4.29,8.44" fill="none" stroke="#dc9b56" stroke-linecap="round" stroke-miterlimit="10" stroke-width="15"/>
                  <circle cx="2724.19" cy="980.72" r="167.19" fill="#a168d5" stroke="#000" stroke-miterlimit="10" stroke-width="2"/>
                  <path d="M2861.72,1087.81c9,18.95,10.06,31.12,3.51,37.73-18.31,18.45-98.5-31.45-179.11-111.46-80.61-80-131.12-159.81-112.81-178.26,7.14-7.19,23.67-4,45.97,7.31" fill="none" stroke="#dc9b56" stroke-linecap="round" stroke-miterlimit="10" stroke-width="15"/>
                  <path d="M2578.79,1078.07c-10.72,20.82-14.3,37.85-7.61,44.83,17.97,18.77,99.05-29.68,181.08-108.22,82.04-78.54,133.97-157.43,116-176.21-5.74-6-17.93-5.13-34.54,1.39" fill="none" stroke="#dc9b56" stroke-linecap="round" stroke-miterlimit="10" stroke-width="15"/>
                </g>
              </g>
              <rect x="3110.47" y="808.11" width="81.78" height="25.45" rx="12.73" ry="12.73" fill="#fff" stroke-width="0"/>
              <g clip-path="url(#clippath-2)">
                <path d="M3116.07,806.35v3.94s-5.45,16.05,16.05,16.05h77.6l9.24,9.24-119.49,1.53-1.32-30.76h17.93Z" fill="#e5e5e5" stroke-width="0"/>
              </g>
              <rect x="3110.47" y="808.11" width="81.78" height="25.45" rx="12.73" ry="12.73" fill="none" stroke="#000" stroke-miterlimit="10"/>
            </g>
            <polyline points="2183.34 1029.05 2309.61 1029.05 2309.61 1094.54 2200.89 1094.54" fill="#8787dd" stroke-width="0"/>
            <polyline points="2199.23 1094.54 2309.61 1094.54 2309.61 1029.05 2183.34 1029.05" fill="none" stroke="#000" stroke-miterlimit="10" stroke-width="2"/>
            <g>
              <g>
                <g>
                  <path d="M2376.98,1090.77s32.9,4.84,36.5-19.76l-36.32,4.23-.18,15.53Z" fill="#fff" stroke-width="0"/>
                  <path d="M2335.15,1036.92s21.39-15.1,33.47-15.22c7.41-.08,17.38-.06,23.98-.03,3.86.01,6.97,3.14,6.97,7h0c0,3.87-3.13,7-7,7-8.18-.15-16.07,2.02-23.69,6.25l-33.73,10.61v-15.6Z" fill="#fff" stroke-width="0"/>
                  <path d="M2368.68,1037.08s17.01,6.76,33.8,7.46c4.81.2,8.66.29,11.65.32,4.85.05,8.75,3.97,8.79,8.82h0c.03,4.12-2.77,7.72-6.76,8.7l-31.81,7.82-3.87,20.63s-20.86,7.31-51.06,2.59l-3.96-49.64,43.22-6.7Z" fill="#fff" stroke-width="0"/>
                  <path d="M2377.74,1079.07s37.53,6.73,41.13-17.87l-40.19,4.69-.94,13.18Z" fill="#fff" stroke-width="0"/>
                </g>
                <path d="M2414.12,1044.86c-2.99-.03-6.84-.12-11.65-.32-10.68-.45-21.45-3.35-27.87-5.39,5.83-2.4,11.81-3.6,17.96-3.49,3.87,0,7-3.13,7-7s-3.12-6.99-6.97-7c-6.6-.03-16.57-.04-23.98.03-12.08.13-33.47,15.22-33.47,15.22v5.36l-9.69,1.5,3.96,49.64c27.08,4.23,46.64-1.21,50.39-2.37,7.85.5,29.58.16,33.4-18.55,2.86-2.72,4.93-6.38,5.65-11.29,2.49-1.62,4.07-4.42,4.05-7.52h0c-.04-4.85-3.95-8.77-8.79-8.82Z" fill="#fff" stroke="#000" stroke-miterlimit="10" stroke-width="2"/>
                <g clip-path="url(#clippath-3)">
                  <path d="M2337.92,1079.91s5.28,8.7,20.63,8.27c15.35-.43,33.97.58,51.59-5.71l-7.8,12.53-65.68,7.85-6.54-19.63,7.8-3.31Z" fill="#dbdbdb" stroke-width="0"/>
                </g>
                <path d="M2418.87,1061.2s-21.69,5.22-37.35,2.39" fill="none" stroke="#000" stroke-miterlimit="10" stroke-width="2"/>
                <path d="M2413.62,1072.32s-13.43,8.76-34,7.12" fill="none" stroke="#000" stroke-miterlimit="10" stroke-width="2"/>
              </g>
              <rect x="2303.44" y="1021.69" width="38.25" height="79.02" rx="19.13" ry="19.13" fill="#fff" stroke-width="0"/>
              <rect x="2303.44" y="1021.69" width="38.25" height="79.02" rx="19.13" ry="19.13" fill="none" stroke="#000" stroke-miterlimit="10" stroke-width="2"/>
            </g>
          </g>
        </g>
        <g>
          <path d="M1847.16,670.98s-17.49,12.83-21.74,49.54" fill="none" stroke="#e6007a" stroke-linecap="round" stroke-miterlimit="10" stroke-width="9"/>
          <g>
            <g>
              <g>
                <path d="M1885.08,578.37c1.33-4.96-3.45-10.62-10.86-13.14h0s0,0,0,0c-.5-.17-1.01-.32-1.53-.46-.4-.11-.8-.2-1.19-.29l-4.97-1.37-.39.85c-5.52.15-9.95,2.51-10.99,6.36s1.41,7.77,5.76,10.65l.18,1.21,7.23,1.94h0c7.97,1.85,15.37-.65,16.75-5.77Z" fill="#e6007a" stroke="#020001" stroke-miterlimit="10" stroke-width="2"/>
                <path d="M1902.48,597.27c-1.58-7.06-5.37-12.31-9.28-13.49h0s-.38-.1-.38-.1c0,0-.01,0-.02,0l-4.6-1.24-.83,3.07c-3,3.27-4.15,10.13-2.54,17.29.53,2.37,1.31,4.53,2.26,6.41h0s2.52,5.87,2.52,5.87l4.21,1.11c.34.12.69.21,1.03.27h.02s0,0,0,0c.82.14,1.63.09,2.43-.16,4.87-1.53,7.19-10.05,5.18-19.04Z" fill="#e6007a" stroke="#020001" stroke-miterlimit="10" stroke-width="2"/>
                <path d="M1895.27,623.87c-.74-.81-1.69-1.33-2.78-1.58h0s-3.6-.93-3.6-.93l-1.04,1.19c-3.26.93-6.92,3.26-10.14,6.76-3.59,3.89-5.86,8.35-6.49,12.17l-.92-.25.39,7.47,4.29,1.15h0c3.98,1.24,10.13-1.4,15.22-6.91,6.25-6.77,8.52-15.31,5.07-19.07Z" fill="#e6007a" stroke="#020001" stroke-miterlimit="10" stroke-width="2"/>
                <path d="M1865.68,650.56c1.42-5.29-4.12-11.38-12.39-13.6-.19-.05-.37-.1-.56-.14h0s-4.6-1.24-4.6-1.24l-.15.58c-6.09-.2-11.12,2.23-12.23,6.36-1.12,4.18,2.11,8.86,7.59,11.73l-.14.54,4.83,1.3s.07.02.11.03c.03,0,.07.02.1.03l.13.04h0c8.18,2.11,15.89-.38,17.3-5.62Z" fill="#e6007a" stroke="#020001" stroke-miterlimit="10" stroke-width="2"/>
                <path d="M1836.01,618.09c-1.68-7.48-5.82-12.91-9.98-13.65h0s-4.2-1.16-4.2-1.16l.08,2.12c-3.75,2.72-5.35,10.29-3.57,18.22.94,4.18,2.65,7.73,4.7,10.17l.08,2.12,4.73,1.27h0c.99.25,1.99.26,2.96-.05,4.88-1.53,7.2-10.05,5.18-19.04Z" fill="#e6007a" stroke="#020001" stroke-miterlimit="10" stroke-width="2"/>
                <path d="M1848.19,572.52c-.7-.76-1.57-1.26-2.57-1.53h0s-3.98-1.07-3.98-1.07l-.84,1.27c-3.27.92-6.94,3.26-10.18,6.77-5.55,6.02-7.96,13.43-6,17.65l-1.13,1.7,4.31,1.16h0c3.97,1.32,10.19-1.31,15.33-6.87,6.25-6.77,8.52-15.31,5.06-19.07Z" fill="#e6007a" stroke="#020001" stroke-miterlimit="10" stroke-width="2"/>
              </g>
              <g>
                <ellipse cx="1865.61" cy="573.14" rx="9.92" ry="15.49" transform="translate(827.88 2226.06) rotate(-74.96)" fill="#e6007a" stroke="#020001" stroke-miterlimit="10" stroke-width="2"/>
                <ellipse cx="1846.21" cy="645.33" rx="9.92" ry="15.49" transform="translate(743.81 2260.77) rotate(-74.96)" fill="#e6007a" stroke="#020001" stroke-miterlimit="10" stroke-width="2"/>
                <ellipse cx="1832.37" cy="583.56" rx="16.7" ry="9.21" transform="translate(196.39 1594.34) rotate(-49.37)" fill="#e6007a" stroke="#020001" stroke-miterlimit="10" stroke-width="2"/>
                <ellipse cx="1879.45" cy="634.91" rx="16.7" ry="9.2" transform="translate(173.77 1647.87) rotate(-49.37)" fill="#e6007a" stroke="#020001" stroke-miterlimit="10" stroke-width="2"/>
                <ellipse cx="1822.67" cy="619.65" rx="9.21" ry="16.7" transform="translate(-82.58 343.8) rotate(-10.54)" fill="#e6007a" stroke="#020001" stroke-miterlimit="10" stroke-width="2"/>
                <ellipse cx="1889.16" cy="598.82" rx="9.2" ry="16.7" transform="translate(-77.67 355.74) rotate(-10.54)" fill="#e6007a" stroke="#020001" stroke-miterlimit="10" stroke-width="2"/>
              </g>
            </g>
            <path d="M1801.47,646.21s-17.49,12.83-21.74,49.54" fill="none" stroke="#e6007a" stroke-linecap="round" stroke-miterlimit="10" stroke-width="9"/>
            <path d="M1815.25,670.81s-22.47,23.7-22.47,101.27" fill="none" stroke="#e6007a" stroke-linecap="round" stroke-miterlimit="10" stroke-width="9"/>
          </g>
        </g>
        <g>
          <path d="M2243.59,339.88c0-45.48-36.68-82.38-82.07-82.75-15.48-51.3-63.09-88.66-119.43-88.66-63.19,0-115.4,46.99-123.61,107.93-25.03,14.23-41.91,41.14-41.91,71.99,0,.18,0,.35,0,.53.16,26.12,21.56,47.15,47.68,47.15h270.64c21.52,0,40.56-14.36,46.01-35.17,1.76-6.71,2.69-13.75,2.69-21.01Z" fill="#fff" stroke="#000" stroke-miterlimit="10" stroke-width="2"/>
          <g>
            <g>
              <path d="M1993.82,215.08l-4.25-4.93c-1.52-1.77-3.74-2.78-6.07-2.78h-47.89c-4.43,0-8.02,3.59-8.02,8.02v88.18c0,4.43,3.59,8.02,8.02,8.02h143.75c4.43,0,8.02-3.59,8.02-8.02v-77.69c0-4.43-3.59-8.02-8.02-8.02h-79.46c-2.33,0-4.55-1.02-6.07-2.78Z" stroke="#000" stroke-miterlimit="10" stroke-width="2"/>
              <path d="M1987.7,215.08l-4.25-4.93c-1.52-1.77-3.74-2.78-6.07-2.78h-47.89c-4.43,0-8.02,3.59-8.02,8.02v88.18c0,4.43,3.59,8.02,8.02,8.02h143.75c4.43,0,8.02-3.59,8.02-8.02v-77.69c0-4.43-3.59-8.02-8.02-8.02h-79.46c-2.33,0-4.55-1.02-6.07-2.78Z" fill="#f3ba2f" stroke="#000" stroke-miterlimit="10" stroke-width="2"/>
            </g>
            <g>
              <path d="M1966.52,215.08l-4.25-4.93c-1.52-1.77-3.74-2.78-6.07-2.78h-47.89c-4.43,0-8.02,3.59-8.02,8.02v88.18c0,4.43,3.59,8.02,8.02,8.02h143.75c4.43,0,8.02-3.59,8.02-8.02v-77.69c0-4.43-3.59-8.02-8.02-8.02h-79.46c-2.33,0-4.55-1.02-6.07-2.78Z" stroke="#000" stroke-miterlimit="10" stroke-width="2"/>
              <path d="M1960.41,215.08l-4.25-4.93c-1.52-1.77-3.74-2.78-6.07-2.78h-47.89c-4.43,0-8.02,3.59-8.02,8.02v88.18c0,4.43,3.59,8.02,8.02,8.02h143.75c4.43,0,8.02-3.59,8.02-8.02v-77.69c0-4.43-3.59-8.02-8.02-8.02h-79.46c-2.33,0-4.55-1.02-6.07-2.78Z" fill="#f3ba2f" stroke="#000" stroke-miterlimit="10" stroke-width="2"/>
            </g>
            <g>
              <path d="M1934.89,215.08l-4.25-4.93c-1.52-1.77-3.74-2.78-6.07-2.78h-47.89c-4.43,0-8.02,3.59-8.02,8.02v88.18c0,4.43,3.59,8.02,8.02,8.02h143.75c4.43,0,8.02-3.59,8.02-8.02v-77.69c0-4.43-3.59-8.02-8.02-8.02h-79.46c-2.33,0-4.55-1.02-6.07-2.78Z" stroke="#000" stroke-miterlimit="10" stroke-width="2"/>
              <path d="M1928.77,215.08l-4.25-4.93c-1.52-1.77-3.74-2.78-6.07-2.78h-47.89c-4.43,0-8.02,3.59-8.02,8.02v88.18c0,4.43,3.59,8.02,8.02,8.02h143.75c4.43,0,8.02-3.59,8.02-8.02v-77.69c0-4.43-3.59-8.02-8.02-8.02h-79.46c-2.33,0-4.55-1.02-6.07-2.78Z" fill="#f3ba2f" stroke="#000" stroke-miterlimit="10" stroke-width="2"/>
            </g>
            <g>
              <path d="M1901.32,215.08l-4.25-4.93c-1.52-1.77-3.74-2.78-6.07-2.78h-47.89c-4.43,0-8.02,3.59-8.02,8.02v88.18c0,4.43,3.59,8.02,8.02,8.02h143.75c4.43,0,8.02-3.59,8.02-8.02v-77.69c0-4.43-3.59-8.02-8.02-8.02h-79.46c-2.33,0-4.55-1.02-6.07-2.78Z" stroke="#000" stroke-miterlimit="10" stroke-width="2"/>
              <path d="M1895.21,215.08l-4.25-4.93c-1.52-1.77-3.74-2.78-6.07-2.78h-47.89c-4.43,0-8.02,3.59-8.02,8.02v88.18c0,4.43,3.59,8.02,8.02,8.02h143.75c4.43,0,8.02-3.59,8.02-8.02v-77.69c0-4.43-3.59-8.02-8.02-8.02h-79.46c-2.33,0-4.55-1.02-6.07-2.78Z" fill="#f3ba2f" stroke="#000" stroke-miterlimit="10" stroke-width="2"/>
            </g>
            <g>
              <rect x="1839.97" y="275.73" width="274.3" height="109.8" fill="#fff" stroke="#000" stroke-miterlimit="10" stroke-width="2"/>
              <rect x="1817.25" y="273.94" width="179.43" height="113.37" fill="#fff" stroke="#000" stroke-miterlimit="10" stroke-width="2"/>
              <rect x="1807.63" y="273.94" width="179.43" height="113.37" fill="#fff" stroke="#000" stroke-miterlimit="10" stroke-width="2"/>
              <circle cx="1893.26" cy="298.49" r="10.04" stroke="#000" stroke-miterlimit="10" stroke-width="2"/>
              <circle cx="1890.2" cy="298.49" r="10.04" fill="#fff" stroke="#000" stroke-miterlimit="10" stroke-width="2"/>
            </g>
            <rect x="1996.68" y="275.73" width="17.61" height="109.8" stroke="#000" stroke-miterlimit="10" stroke-width="2"/>
          </g>
        </g>
        <g>
          <path d="M3196.48,561.72c24.01,0,43.78-19.26,43.96-43.27,0-.17,0-.34,0-.5,0-36.17-29.32-65.5-65.5-65.5-2.82,0-5.59.2-8.31.54-16.36-39.28-55.11-66.89-100.32-66.89-5.37,0-10.64.4-15.8,1.15-26.2-39.94-71.37-66.33-122.7-66.33-80.99,0-146.65,65.66-146.65,146.65,0,.24,0,.47,0,.71-2.95-.46-5.98-.71-9.06-.71-32,0-57.94,25.94-57.94,57.94,0,.14,0,.27,0,.41.14,19.86,16.47,35.8,36.33,35.8h445.98Z" fill="#fff" stroke="#000" stroke-miterlimit="10" stroke-width="2"/>
          <g>
            <path d="M2801.87,458.04s7.22-88.85,91.15-108.77" fill="none" stroke="#000" stroke-linecap="round" stroke-miterlimit="10" stroke-width="2"/>
            <path d="M3063.5,409.12s62.13-3.71,84.12,52.36" fill="none" stroke="#000" stroke-linecap="round" stroke-miterlimit="10" stroke-width="2"/>
          </g>
        </g>
      </g>
    </g>
  </g>
</svg>